Coordinates
version=1
nRows=13
nColumns=40
inDegrees=yes

Units are S.I. units (second, meters, Newtons, ...)
If the header above contains a line with 'inDegrees', this indicates whether rotational values are in degrees (yes) or radians (no).

endheader
time	pelvis_tilt	pelvis_list	pelvis_rotation	pelvis_tx	pelvis_ty	pelvis_tz	hip_flexion_r	hip_adduction_r	hip_rotation_r	knee_angle_r	knee_angle_r_beta	ankle_angle_r	subtalar_angle_r	mtp_angle_r	hip_flexion_l	hip_adduction_l	hip_rotation_l	knee_angle_l	knee_angle_l_beta	ankle_angle_l	subtalar_angle_l	mtp_angle_l	lumbar_extension	lumbar_bending	lumbar_rotation	arm_flex_r	arm_add_r	arm_rot_r	elbow_flex_r	pro_sup_r	wrist_flex_r	wrist_dev_r	arm_flex_l	arm_add_l	arm_rot_l	elbow_flex_l	pro_sup_l	wrist_flex_l	wrist_dev_l
      0.94000000	     19.63620566	      3.56926039	      5.61087451	      1.41274053	      0.97792479	     -0.34290691	      1.73799797	     -6.00324601	     -6.30320547	     35.18650117	      0.61412030	     -5.99629023	      0.00000000	      0.00000000	    -27.64420664	      4.97478856	      4.77635301	      6.98142898	      0.12184892	     -5.91310529	      0.00000000	      0.00000000	    -33.27885725	     -1.32460599	     -8.10828352	      4.23095077	    -15.33770922	     11.02378253	     40.53410747	     77.89762024	      0.00000000	      0.00000000	      8.54977699	    -25.76426825	     28.58356722	     55.29853249	     72.71980567	      0.00000000	      0.00000000
      0.94400000	     19.63960814	      3.55124986	      5.72484483	      1.41776681	      0.97738946	     -0.34302510	      1.94354031	     -5.92979448	     -6.50912642	     33.95669043	      0.59265605	     -6.36636158	      0.00000000	      0.00000000	    -28.10744988	      4.85772195	      4.75714915	      6.76094788	      0.11800080	     -5.79625092	      0.00000000	      0.00000000	    -33.31264030	     -1.24662296	     -8.18751763	      4.14241520	    -15.25810501	     10.69808233	     40.53221279	     77.60467584	      0.00000000	      0.00000000	      8.87295891	    -25.86063592	     28.79185616	     55.29962894	     73.72468872	      0.00000000	      0.00000000
      0.94800000	     19.41864315	      3.69005753	      5.66351834	      1.42232099	      0.97641072	     -0.34319331	      2.53946714	     -6.04137133	     -6.30403488	     32.95947057	      0.57525128	     -6.61824010	      0.00000000	      0.00000000	    -28.25801980	      5.03992999	      4.77849223	      6.66495171	      0.11632535	     -5.66289765	      0.00000000	      0.00000000	    -33.19228326	     -1.40799492	     -8.32623130	      4.19179266	    -15.20876742	     10.60344109	     40.53795274	     77.55782194	      0.00000000	      0.00000000	      9.07197445	    -25.90344787	     28.86162118	     55.50098767	     73.79892240	      0.00000000	      0.00000000
      0.95200000	     19.20222904	      3.75198759	      5.58787244	      1.42718942	      0.97539128	     -0.34331537	      3.12610159	     -6.08509291	     -6.25716232	     31.92480361	      0.55719294	     -6.96172137	      0.00000000	      0.00000000	    -28.43858379	      5.13868656	      4.65691441	      6.53705708	      0.11409317	     -5.51607065	      0.00000000	      0.00000000	    -33.03612472	     -1.49797796	     -8.40434635	      4.19262661	    -15.15339982	     10.42549090	     40.53114063	     77.50064943	      0.00000000	      0.00000000	      9.24109279	    -26.00323810	     28.91470047	     55.67465238	     74.00992038	      0.00000000	      0.00000000
      0.95600000	     19.02335281	      3.76445376	      5.57125800	      1.43209058	      0.97444822	     -0.34335141	      3.57440722	     -6.02752151	     -6.12300550	     30.73877542	      0.53649284	     -7.35804625	      0.00000000	      0.00000000	    -28.63610355	      5.15056616	      4.48606009	      6.44004082	      0.11239992	     -5.36294909	      0.00000000	      0.00000000	    -32.88909284	     -1.53360849	     -8.44021684	      4.18867630	    -15.08518882	     10.26516372	     40.42699706	     77.43576100	      0.00000000	      0.00000000	      9.52572105	    -26.03865317	     29.09501028	     55.65788325	     74.31517074	      0.00000000	      0.00000000
      0.96000000	     18.79183763	      3.89308370	      5.49826642	      1.43680338	      0.97338728	     -0.34353509	      4.15295803	     -6.14686221	     -6.06014572	     29.70171233	      0.51839267	     -7.71577559	      0.00000000	      0.00000000	    -28.74041823	      5.32571292	      4.45273040	      6.42413729	      0.11212235	     -5.20351854	      0.00000000	      0.00000000	    -32.73615874	     -1.68784798	     -8.54387537	      4.22032681	    -15.04946148	     10.17815969	     40.39774023	     77.40439038	      0.00000000	      0.00000000	      9.71346613	    -26.06024799	     29.17237920	     55.83664712	     74.33799417	      0.00000000	      0.00000000
      0.96400000	     18.52265617	      4.04214538	      5.41765910	      1.44195555	      0.97210521	     -0.34378520	      4.78923979	     -6.33905597	     -6.17051152	     28.78985359	      0.50247774	     -7.90340986	      0.00000000	      0.00000000	    -28.86823253	      5.53067557	      4.24629539	      6.34996424	      0.11082778	     -5.01693340	      0.00000000	      0.00000000	    -32.47542483	     -1.86753490	     -8.62835027	      4.25018961	    -15.04814493	     10.20393196	     40.24490045	     77.38310749	      0.00000000	      0.00000000	      9.82702756	    -26.12861371	     29.29741810	     56.03552032	     74.35346269	      0.00000000	      0.00000000
      0.96800000	     18.28831838	      4.10113670	      5.34548554	      1.44635405	      0.97106839	     -0.34374623	      5.30224177	     -6.28918723	     -5.82088348	     27.47301112	      0.47949450	     -8.76561511	      0.00000000	      0.00000000	    -28.94590010	      5.62481533	      4.26702939	      6.32924518	      0.11046617	     -4.83955077	      0.00000000	      0.00000000	    -32.36529419	     -1.97026434	     -8.73099331	      4.31616420	    -14.89603090	      9.87175039	     40.22426715	     77.27687842	      0.00000000	      0.00000000	     10.05802409	    -26.18529214	     29.26944504	     56.09394641	     74.34703883	      0.00000000	      0.00000000
      0.97200000	     18.02036600	      4.21274297	      5.23279379	      1.45145632	      0.96976159	     -0.34397231	      5.92014988	     -6.43918220	     -5.94676657	     26.53905485	      0.46319389	     -8.96920819	      0.00000000	      0.00000000	    -29.04576352	      5.79668627	      4.13741259	      6.30890321	      0.11011113	     -4.66276138	      0.00000000	      0.00000000	    -32.11431272	     -2.11862446	     -8.76419145	      4.28170550	    -14.89775701	      9.79763245	     40.18437409	     77.23574557	      0.00000000	      0.00000000	     10.19587850	    -26.17312260	     29.35096411	     56.19863094	     74.37755390	      0.00000000	      0.00000000
      0.97600000	     17.72577140	      4.33663332	      5.18559630	      1.45622979	      0.96847821	     -0.34417440	      6.52956194	     -6.54276169	     -5.95505216	     25.45167866	      0.44421559	     -9.40498140	      0.00000000	      0.00000000	    -29.08518713	      5.96356817	      4.07971658	      6.29879755	      0.10993476	     -4.46876262	      0.00000000	      0.00000000	    -31.86504101	     -2.25566900	     -8.84381462	      4.37103446	    -14.86081348	      9.78997936	     40.02346445	     77.17237546	      0.00000000	      0.00000000	     10.42870386	    -26.17871793	     29.45139666	     56.24202441	     74.42242939	      0.00000000	      0.00000000
      0.98000000	     17.55421947	      4.34284107	      5.12159406	      1.46078122	      0.96754744	     -0.34397909	      6.92856858	     -6.41419113	     -5.70499230	     24.10001812	      0.42062467	    -10.34547610	      0.00000000	      0.00000000	    -29.18084396	      5.96859847	      4.07715278	      6.37916223	      0.11133738	     -4.30028602	      0.00000000	      0.00000000	    -31.78975565	     -2.30910450	     -8.87877847	      4.50697876	    -14.71621126	      9.56456624	     39.79523416	     77.02678029	      0.00000000	      0.00000000	     10.69646235	    -26.22612647	     29.54427696	     56.20408166	     74.52400992	      0.00000000	      0.00000000
      0.98400000	     17.30105766	      4.37982547	      5.08282477	      1.46566589	      0.96628243	     -0.34404186	      7.42327256	     -6.39593020	     -5.70353341	     22.91009350	      0.39985656	    -10.87206388	      0.00000000	      0.00000000	    -29.25323458	      6.02382899	      3.97888906	      6.38632132	      0.11146233	     -4.08607414	      0.00000000	      0.00000000	    -31.57859810	     -2.37329542	     -8.90911765	      4.49620569	    -14.66842637	      9.48854203	     39.75083105	     76.98659093	      0.00000000	      0.00000000	     10.93233044	    -26.24483621	     29.68925077	     56.24685066	     74.64434864	      0.00000000	      0.00000000
      0.98800000	     17.07884403	      4.52230529	      4.99784476	      1.47042097	      0.96512973	     -0.34411400	      7.89204771	     -6.47619159	     -5.64345080	     21.75476365	      0.37969225	    -11.28749291	      0.00000000	      0.00000000	    -29.29466442	      6.20248339	      3.88448391	      6.51570450	      0.11372050	     -3.94717532	      0.00000000	      0.00000000	    -31.44770609	     -2.54846138	     -8.97659344	      4.55278887	    -14.58247936	      9.32309510	     39.65056242	     76.94392989	      0.00000000	      0.00000000	     11.15353636	    -26.27637881	     29.71551103	     56.28677754	     74.73432826	      0.00000000	      0.00000000
